<svg width="979" height="425" viewBox="0 0 979 425" fill="none" xmlns="http://www.w3.org/2000/svg">

    <path
        d="M602.109 327.961C611.596 327.961 619.781 329.996 626.662 334.068C633.584 338.099 638.919 343.76 642.665 351.048C646.411 358.297 648.285 366.766 648.285 376.458C648.285 386.067 646.411 394.516 642.665 401.805C638.919 409.053 633.585 414.714 626.662 418.786C619.781 422.817 611.596 424.833 602.109 424.833C592.621 424.833 584.416 422.817 577.493 418.786C570.612 414.714 565.298 409.053 561.552 401.805C557.806 394.516 555.933 386.067 555.933 376.458C555.933 366.766 557.806 358.296 561.552 351.048C565.298 343.76 570.612 338.099 577.493 334.068C584.416 329.996 592.621 327.961 602.109 327.961ZM772.933 327.961C779.122 327.961 784.885 328.958 790.219 330.954C795.594 332.908 800.276 335.86 804.267 339.81C808.298 343.76 811.433 348.728 813.673 354.713C815.912 360.658 817.032 367.621 817.032 375.602V382.749H753.143V382.81C753.143 387.452 753.998 391.463 755.708 394.842C757.459 398.222 759.923 400.828 763.099 402.661C766.275 404.493 770.042 405.409 774.399 405.409C777.289 405.409 779.937 405.002 782.339 404.188C784.741 403.374 786.798 402.152 788.508 400.523C790.218 398.894 791.521 396.898 792.417 394.537L816.483 396.126C815.261 401.908 812.757 406.957 808.97 411.273C805.224 415.548 800.378 418.887 794.433 421.29C788.528 423.651 781.707 424.833 773.971 424.833C764.321 424.833 756.014 422.878 749.051 418.969C742.129 415.02 736.794 409.44 733.048 402.233C729.302 394.985 727.429 386.413 727.429 376.518C727.429 366.868 729.302 358.399 733.048 351.11C736.794 343.821 742.067 338.14 748.867 334.068C755.708 329.996 763.73 327.961 772.933 327.961ZM486.943 296.199C494.191 296.199 500.91 297.217 507.1 299.253C513.33 301.288 518.848 304.261 523.652 308.17C528.457 312.039 532.366 316.783 535.379 322.402C538.433 328.021 540.388 334.456 541.243 341.704H514.49C514.002 338.243 513.004 335.168 511.497 332.48C509.991 329.752 508.056 327.431 505.694 325.517C503.333 323.603 500.604 322.138 497.51 321.12C494.456 320.102 491.137 319.592 487.554 319.592C481.08 319.592 475.44 321.201 470.635 324.418C465.83 327.594 462.104 332.236 459.457 338.344C456.811 344.411 455.487 351.782 455.487 360.455C455.487 369.372 456.81 376.865 459.457 382.932C462.145 388.999 465.892 393.58 470.696 396.674C475.501 399.769 481.06 401.317 487.371 401.317C490.914 401.317 494.191 400.848 497.204 399.912C500.258 398.975 502.967 397.612 505.328 395.82C507.69 393.988 509.644 391.768 511.192 389.162C512.779 386.556 513.88 383.584 514.49 380.245L541.243 380.367C540.551 386.108 538.82 391.646 536.051 396.98C533.323 402.273 529.638 407.017 524.996 411.211C520.395 415.365 514.897 418.664 508.504 421.107C502.152 423.509 494.965 424.71 486.943 424.711C475.786 424.711 465.809 422.186 457.014 417.136C448.259 412.087 441.337 404.778 436.247 395.209C431.198 385.639 428.673 374.055 428.673 360.455C428.673 346.814 431.239 335.208 436.369 325.639C441.5 316.07 448.463 308.782 457.259 303.773C466.054 298.724 475.949 296.199 486.943 296.199ZM713.945 327.838C715.248 327.838 716.654 327.92 718.16 328.083C719.667 328.245 720.99 328.469 722.13 328.754V351.842C720.908 351.476 719.219 351.15 717.061 350.865C714.903 350.58 712.927 350.438 711.136 350.438C707.308 350.438 703.887 351.272 700.874 352.942C697.902 354.571 695.54 356.851 693.789 359.783C692.079 362.715 691.224 366.095 691.224 369.922V423.001H665.204V329.182H690.43V345.551H691.407C693.118 339.728 695.988 335.331 700.02 332.358C704.051 329.345 708.693 327.838 713.945 327.838ZM172.862 2.79646C220.757 -4.68655 265.658 4.29281 309.624 30.2965C332.823 43.766 365.377 76.5052 379.034 99.7027C389.885 118.223 398.491 138.988 404.291 160.689C409.717 181.455 411.026 223.547 406.91 247.68C396.433 308.854 365.377 357.307 315.05 390.42C267.904 421.661 211.776 430.641 154.901 416.236C120.664 407.63 90.1692 389.671 63.2286 362.545C5.6053 304.739 -13.8521 224.856 10.2823 145.91C32.546 72.7629 99.1496 14.2081 172.862 2.79646ZM602.231 347.811C597.874 347.811 594.209 349.053 591.236 351.537C588.305 354.021 586.086 357.401 584.579 361.676C583.113 365.952 582.38 370.818 582.38 376.274C582.38 381.73 583.113 386.597 584.579 390.873C586.086 395.148 588.305 398.527 591.236 401.011C594.209 403.454 597.874 404.676 602.231 404.676C606.547 404.676 610.151 403.454 613.042 401.011C615.933 398.527 618.111 395.148 619.577 390.873C621.084 386.597 621.837 381.73 621.837 376.274C621.837 370.818 621.084 365.952 619.577 361.676C618.111 357.401 615.933 354.021 613.042 351.537C610.151 349.053 606.547 347.811 602.231 347.811ZM245.266 36.0963C209.345 26.9295 166.501 31.2318 131.516 47.5074C92.6013 65.4668 61.1705 98.5802 44.5196 138.989C34.4169 163.683 31.0489 181.268 31.0489 212.135C30.8618 234.959 31.6102 240.759 35.9132 256.847C54.9963 326.627 104.388 374.705 170.243 388.174C191.197 392.477 228.802 390.981 250.13 385.369C330.765 363.668 383.337 289.773 379.034 203.717C375.105 121.965 322.159 55.5524 245.266 36.0963ZM210.093 291.643C214.583 291.643 217.764 293.888 225.621 302.306C231.047 308.106 235.537 314.28 235.537 315.963C235.537 317.834 233.666 321.576 231.421 324.569C227.679 329.246 227.118 332.613 226.557 350.011L225.809 370.028L219.26 371.337C209.905 373.021 173.424 371.151 168.746 368.719C160.327 364.042 162.947 344.211 172.862 337.29C189.7 325.504 201.86 309.228 201.86 298.003C201.861 295.946 202.422 293.514 203.17 292.953C203.731 292.204 206.912 291.643 210.093 291.643ZM773.36 347.383C769.411 347.383 765.909 348.3 762.855 350.132C759.841 351.924 757.48 354.347 755.77 357.401C754.192 360.181 753.326 363.255 753.169 366.624H792.539C792.539 362.877 791.725 359.559 790.096 356.668C788.467 353.777 786.207 351.517 783.317 349.888C780.466 348.219 777.147 347.383 773.36 347.383ZM252.749 322.136C258.175 316.337 268.465 316.337 275.013 322.136C277.819 324.381 283.619 330.368 287.922 335.232C295.592 343.837 295.779 344.212 292.412 346.831C286.987 351.133 259.671 364.042 252.936 365.539C247.51 366.661 246.762 366.286 245.826 361.422C245.078 358.617 244.33 355.25 243.956 353.94C242.459 349.263 248.82 326.439 252.749 322.136ZM122.161 254.041C129.832 249.364 131.89 249.551 136.942 255.538C150.412 271.813 154.715 275.368 167.998 281.728C175.856 285.47 182.591 288.837 182.965 289.211C183.339 289.587 183.714 292.767 183.526 296.507C183.152 305.113 177.165 313.157 167.623 318.021C163.32 320.266 157.521 324.195 154.715 326.814C148.915 332.239 143.116 347.766 144.425 354.501C144.799 356.933 144.611 359.552 143.676 359.926C141.242 361.608 115.426 344.96 103.64 334.11C93.7241 324.943 92.6014 323.446 94.6593 320.266C104.201 306.422 106.82 300.061 108.504 288.462C111.31 268.446 115.239 258.156 122.161 254.041ZM264.161 265.079C270.148 257.596 273.142 256.847 284.554 259.84C292.599 262.085 302.889 270.13 302.889 274.058C302.889 282.664 316.546 300.997 328.146 307.732C331.513 309.603 330.952 310.538 322.533 320.266C317.482 326.065 312.805 330.929 311.869 330.929C311.121 330.929 309.437 329.246 308.127 327.188C306.817 325.13 304.946 323.446 304.011 323.446C303.074 323.444 297.462 318.581 291.851 312.595C276.697 296.881 266.968 293.14 254.059 298.191C250.691 299.501 239.278 290.895 239.278 287.34C239.278 286.031 243.582 282.102 248.82 278.547C254.059 274.993 260.981 269.007 264.161 265.079ZM75.2023 254.789C81.5631 249.738 87.7368 249.364 93.1622 253.667L97.2784 257.034L93.5362 270.129C91.6654 277.238 89.046 287.341 87.7364 292.579C83.4334 311.473 78.9435 311.099 69.2149 291.082C58.9252 269.755 58.3638 266.388 64.7247 262.272C67.7181 260.588 72.3959 257.221 75.2023 254.789ZM327.21 235.708C332.261 230.282 333.759 229.72 338.997 230.656C342.365 231.404 348.164 232.527 352.093 233.088C358.267 234.024 359.016 234.585 359.016 239.449C359.016 246.932 352.655 269.194 347.042 281.728L342.178 292.017L336.191 288.462C327.959 283.785 317.669 263.956 318.979 255.538C321.037 243.378 321.598 241.881 327.21 235.708ZM934.183 175.961C940.372 175.961 946.135 176.958 951.469 178.954C956.844 180.908 961.526 183.86 965.517 187.81C969.548 191.76 972.683 196.728 974.923 202.713C977.162 208.658 978.282 215.621 978.282 223.602V230.749H914.393V230.81C914.393 235.452 915.248 239.463 916.958 242.842C918.709 246.222 921.173 248.828 924.349 250.661C927.525 252.493 931.292 253.409 935.649 253.409C938.539 253.409 941.187 253.002 943.589 252.188C945.991 251.374 948.048 250.152 949.758 248.523C951.468 246.894 952.771 244.898 953.667 242.537L977.733 244.126C976.511 249.908 974.007 254.957 970.22 259.273C966.474 263.548 961.628 266.887 955.683 269.29C949.778 271.651 942.957 272.833 935.221 272.833C925.571 272.833 917.264 270.878 910.301 266.969C903.379 263.02 898.044 257.44 894.298 250.233C890.552 242.985 888.679 234.413 888.679 224.518C888.679 214.868 890.552 206.399 894.298 199.11C898.044 191.821 903.317 186.14 910.117 182.068C916.958 177.996 924.98 175.961 934.183 175.961ZM631.931 232.276C631.972 237.814 633.458 242.191 636.39 245.408C639.322 248.625 643.251 250.233 648.178 250.233C651.313 250.233 654.246 249.52 656.974 248.095C659.702 246.629 661.901 244.471 663.57 241.621C665.28 238.77 666.115 235.248 666.074 231.054V177.182H692.094V271.001H667.112V253.959H666.135C664.017 259.456 660.495 263.874 655.568 267.213C650.682 270.552 644.716 272.221 637.672 272.221C631.401 272.221 625.883 270.796 621.119 267.946C616.355 265.096 612.63 261.044 609.942 255.792C607.296 250.539 605.952 244.247 605.911 236.918V177.182H631.931V232.276ZM202.796 151.522C207.847 151.148 229.737 157.696 236.659 161.625C246.575 167.424 255.368 178.461 260.981 192.118C272.954 221.115 259.671 253.292 230.298 266.949C215.331 273.871 194.377 273.871 179.036 266.949C166.688 261.149 155.089 250.112 149.102 237.765C145.547 230.469 144.799 225.979 144.799 211.2C144.799 196.047 145.547 192.118 149.476 184.448C157.895 167.798 173.61 156.387 192.506 153.207C197.183 152.458 201.86 151.709 202.796 151.522ZM528.844 167.714H490.547V271.001H464.404V167.714H426.108V145.909H528.844V167.714ZM584.274 175.838C585.577 175.838 586.982 175.92 588.488 176.083C589.995 176.245 591.318 176.469 592.458 176.754V199.842C591.237 199.476 589.547 199.15 587.389 198.865C585.231 198.58 583.256 198.438 581.464 198.438C577.636 198.438 574.215 199.272 571.202 200.942C568.23 202.571 565.868 204.851 564.117 207.783C562.407 210.715 561.552 214.095 561.552 217.922V271.001H535.532V177.182H560.758V193.551H561.735C563.446 187.728 566.317 183.331 570.348 180.358C574.379 177.345 579.021 175.838 584.274 175.838ZM749.493 140.045C753.484 140.045 757.129 140.351 760.427 140.961C763.766 141.572 766.25 142.122 767.879 142.611L763.236 162.157C762.218 161.831 760.956 161.525 759.449 161.24C757.984 160.955 756.477 160.813 754.93 160.813C751.102 160.813 748.434 161.709 746.928 163.501C745.422 165.251 744.668 167.715 744.668 170.891V177.182H763.359V196.727H744.668V271.001H718.709V196.727H705.455V177.182H718.709V170.402C718.709 163.602 720.033 157.962 722.68 153.483C725.367 149.004 729.032 145.644 733.674 143.405C738.316 141.165 743.589 140.046 749.493 140.045ZM815.841 140.045C819.831 140.045 823.476 140.351 826.775 140.961C830.113 141.572 832.598 142.122 834.227 142.611L829.584 162.157C828.566 161.831 827.304 161.525 825.797 161.24C824.331 160.955 822.825 160.813 821.277 160.813C817.45 160.813 814.782 161.709 813.275 163.501C811.769 165.251 811.016 167.715 811.016 170.891V177.182H829.706V196.727H811.016V271.001H785.057V196.727H771.803V177.182H785.057V170.402C785.057 163.602 786.381 157.962 789.027 153.483C791.715 149.004 795.38 145.644 800.022 143.405C804.664 141.165 809.937 140.046 815.841 140.045ZM871.622 271.001H845.603V145.909H871.622V271.001ZM54.0607 164.992C54.061 163.122 57.6164 165.741 68.4669 175.656C75.9503 182.578 81.9367 190.435 86.8009 199.789C94.8457 215.129 103.826 223.173 117.109 226.541C121.6 227.663 125.154 229.534 125.154 230.843C125.154 231.966 120.477 234.211 114.678 235.52C105.51 237.765 102.704 237.765 90.5431 234.585C74.8277 230.656 70.3374 231.404 62.1056 239.261C58.738 242.255 55.3701 244.874 54.4347 244.874C49.0093 244.872 46.9516 203.155 51.0675 181.455C52.7513 172.849 54.0607 165.553 54.0607 164.992ZM299.896 171.914C305.695 171.914 322.158 177.713 327.584 181.455C331.887 184.635 336.939 185.944 345.358 186.505C359.202 187.441 360.325 188.751 361.073 203.717C361.635 215.503 361.634 215.503 342.552 211.387C333.759 209.704 331.7 209.89 325.714 212.883C316.921 217.373 309.998 224.857 304.76 235.146L300.831 243.378L291.103 242.068C285.677 241.32 281.187 240.571 280.813 240.197C280.626 240.01 281.374 235.333 282.496 229.908C283.806 223.734 284.18 214.755 283.244 206.711C280.625 179.959 280.438 181.267 289.606 176.216C294.096 173.971 298.773 171.914 299.896 171.914ZM934.61 195.383C930.661 195.383 927.159 196.3 924.105 198.132C921.091 199.924 918.73 202.347 917.02 205.401C915.442 208.181 914.576 211.255 914.419 214.624H953.789C953.789 210.877 952.975 207.559 951.346 204.668C949.717 201.777 947.457 199.517 944.567 197.888C941.716 196.219 938.397 195.383 934.61 195.383ZM80.8146 112.423C85.4917 107.372 87.3626 107.56 112.993 113.359L127.961 116.726L134.696 130.382C138.438 137.865 142.927 145.348 144.611 147.219C148.54 151.896 148.354 153.206 142.741 160.877C134.884 171.353 128.896 184.448 126.838 195.86C124.219 209.703 124.032 209.89 117.671 206.523C110.936 203.156 104.948 195.112 97.4649 180.333C93.1619 171.54 88.4849 166.115 77.6339 157.135C69.7766 150.775 63.4158 144.04 63.4151 142.356C63.4151 138.614 75.0148 118.597 80.8146 112.423ZM313.74 110.927C318.792 103.819 320.288 102.696 322.72 104.566C329.081 109.991 350.409 148.529 354.338 161.999C355.461 165.927 354.899 166.301 348.726 166.301C344.797 166.301 336.378 163.682 329.269 160.315C318.605 155.077 314.862 154.329 302.701 154.329C290.541 154.329 287.173 155.264 279.503 159.753C270.897 164.617 270.335 164.805 267.903 161.438C263.226 155.077 265.097 149.652 276.135 138.053C281.934 132.067 287.921 127.016 289.418 127.015C296.153 127.015 308.128 119.159 313.74 110.927ZM235.162 52.1851C247.697 52.1851 301.205 79.1238 304.198 86.981C304.572 88.1035 301.954 93.5291 298.212 98.7672C293.161 105.689 290.167 108.308 286.799 108.308C278.754 108.308 268.09 115.23 262.478 124.022C252.375 140.111 237.408 143.291 230.859 130.57C227.118 123.461 227.118 97.2704 230.859 88.2906C232.543 84.362 233.666 75.7561 233.666 66.9634C233.666 58.7338 234.414 52.1877 235.162 52.1851ZM182.591 51.4361C191.571 49.9396 200.176 49.1919 201.486 49.566C202.983 49.9401 206.351 50.314 209.157 50.314C214.209 50.314 214.209 50.501 214.583 62.6607C214.77 70.1436 213.835 78.5622 211.964 83.8004C210.28 88.4773 208.409 101.199 207.66 112.049L206.538 131.692L193.255 132.815C185.959 133.563 178.289 135.06 176.043 136.182C171.74 138.427 167.81 137.492 160.14 132.253C148.915 124.396 144.986 104.566 150.037 82.6783C151.721 75.7564 153.592 67.8989 153.966 65.2799C155.276 58.3581 163.882 54.2422 182.591 51.4361ZM122.535 73.6988C129.458 69.0219 133.012 68.2733 132.825 71.8277C132.638 79.6849 130.019 94.4642 128.709 95.2125C126.276 96.8959 102.706 92.7807 102.704 90.5357C102.704 88.4779 110.749 81.7431 122.535 73.6988Z"
        fill="white" />
</svg>
